<svg width="14" height="14" viewBox="0 0 14 14">
  <path fill="#61C4B8" fill-rule="evenodd" d="M14,4.75 L14,15.2864583 C14,15.7482663 13.8298627,16.1493038 13.4895833,16.4895833 C13.149304,16.8298628 12.7361127,17 12.25,17 L1.75,17 C1.2638864,17 0.850696233,16.8298628 0.510416667,16.4895833 C0.170137193,16.1493038 0,15.7482663 0,15.2864583 L0,4.75 C0,4.26388733 0.170137193,3.850696 0.510416667,3.51041667 C0.850696233,3.17013733 1.2638864,3 1.75,3 L12.25,3 C12.7361127,3 13.149304,3.17013733 13.4895833,3.51041667 C13.8298627,3.850696 14,4.26388733 14,4.75 Z M9.04166667,7.95833333 C8.482635,7.37499767 7.802088,7.08333333 7,7.08333333 C6.197912,7.08333333 5.51128667,7.36892167 4.94010533,7.94010533 C4.36892167,8.51128667 4.08333333,9.197912 4.08333333,10 C4.08333333,10.802088 4.36892167,11.4887133 4.94010533,12.0598947 C5.51128667,12.6310783 6.197912,12.9166667 7,12.9166667 C7.802088,12.9166667 8.48871333,12.6310783 9.05989467,12.0598947 C9.63107833,11.4887133 9.91666667,10.802088 9.91666667,10 C9.91666667,9.197912 9.62500233,8.517365 9.04166667,7.95833333 Z M12.8333333,6.5 L12.8333333,4.75 C12.8333333,4.36111033 12.6388897,4.16666667 12.25,4.16666667 L10.5,4.16666667 C10.1111103,4.16666667 9.91666667,4.36111033 9.91666667,4.75 L9.91666667,6.5 C9.91666667,6.88888967 10.1111103,7.08333333 10.5,7.08333333 L12.25,7.08333333 C12.6388897,7.08333333 12.8333333,6.88888967 12.8333333,6.5 Z M12.2864583,15.8333333 C12.651044,15.8333333 12.8333333,15.6388908 12.8333333,15.25 L12.8333333,8.83333333 L10.9375,8.83333333 C11.034723,9.14930633 11.0833333,9.53819133 11.0833333,10 C11.0833333,11.1423673 10.6944483,12.1024267 9.91666667,12.8802083 C9.11457867,13.6822963 8.14236733,14.0833333 7,14.0833333 C5.881939,14.0833333 4.92187967,13.6822963 4.11979167,12.8802083 C3.31770367,12.0781203 2.91666667,11.118061 2.91666667,10 C2.91666667,9.63541433 2.977429,9.24652933 3.09895833,8.83333333 L1.16666667,8.83333333 L1.16666667,15.25 C1.16666667,15.4201397 1.22742993,15.5598954 1.34895833,15.6692708 C1.47048673,15.7786463 1.61631867,15.8333333 1.78645833,15.8333333 L12.2864583,15.8333333 Z" transform="translate(0 -3)"/>
</svg>
