<svg width="13" height="16" viewBox="0 0 13 16">
  <path fill="#61C4B8" fill-rule="evenodd" d="M89.3408815,11.5755907 C89.232083,12.1279367 89.1124077,12.6698497 88.9818491,13.20135 C88.8512926,13.7328522 88.6880991,14.2330798 88.4922644,14.7020508 C88.2964276,15.1710232 88.0625163,15.6035124 87.7905223,15.9995328 C87.5185282,16.3955531 87.1812601,16.7290389 86.7787096,17 C86.6590321,16.166273 86.6318325,15.3794552 86.6971107,14.6395216 C86.7623911,13.8995901 86.8739072,13.1883279 87.0316633,12.5057131 C87.1894194,11.8231003 87.3662137,11.1535236 87.5620484,10.496963 C87.7578832,9.84040233 87.9265183,9.17864128 88.0679537,8.51165979 C87.8286009,8.1260617 87.7089255,7.67012477 87.7089255,7.14383499 C87.7089255,6.6175452 87.8095605,6.13815932 88.0108369,5.70566333 C88.2121111,5.27316735 88.5004216,4.93707639 88.8757725,4.69737844 C89.2511255,4.4576825 89.6890286,4.43684077 90.1894986,4.63484924 C90.820523,4.86412432 91.0789141,5.2966143 90.9646761,5.93233119 C90.8504381,6.56804808 90.6763656,7.23241435 90.4424502,7.92545001 C90.2085369,8.61848568 90.0752606,9.26200821 90.0426215,9.85603964 C90.0099824,10.4500691 90.3798875,10.8200298 91.1523516,10.965932 C91.9683337,11.122255 92.6564687,10.9190381 93.2167753,10.3562733 C93.7770841,9.79350643 94.1769086,9.09266513 94.4162635,8.25372733 C94.6556184,7.41478953 94.7263362,6.55241678 94.6284188,5.66658308 C94.5304994,4.78074738 94.2258704,4.09293216 93.7145235,3.60311941 C92.9855776,2.89445044 92.1396907,2.5140688 91.1768314,2.46196046 C90.2139722,2.40985213 89.3136861,2.59483252 88.4759438,3.01690763 C87.6382015,3.43898075 86.9609476,4.0538459 86.4441591,4.8615191 C85.92737,5.6691923 85.7560164,6.57846095 85.9300925,7.58935505 C86.0062508,8.08959067 86.1966428,8.48821083 86.501276,8.78522555 C86.8059113,9.08224026 86.7569516,9.56944379 86.354401,10.2468462 C85.4187416,10.0488357 84.785005,9.62155813 84.4531724,8.9649975 C84.1213396,8.30843688 83.9717451,7.51119855 84.0043844,6.57325451 C84.0370237,5.80205835 84.219257,5.09600661 84.5510898,4.45507929 C84.8829224,3.81415196 85.3126665,3.25400036 85.8403348,2.77460647 C86.368004,2.29521259 86.9636611,1.90701529 87.6273267,1.61000058 C88.2909923,1.31298587 88.970968,1.12800548 89.6672727,1.05505341 C90.537652,0.961259607 91.3862607,0.987311774 92.213124,1.13321391 C93.0399852,1.27911805 93.7825173,1.53965373 94.4407434,1.91483094 C95.0989673,2.29000616 95.6483887,2.77460447 96.0890178,3.3686339 C96.5296491,3.96266332 96.8097982,4.65568898 96.9294757,5.44772887 C97.0491532,6.34398544 97.016514,7.23241235 96.8315583,8.11303762 C96.6466026,8.99366089 96.3202135,9.77787313 95.8523848,10.4656984 C95.384556,11.1535236 94.7916165,11.7006471 94.0735517,12.1070909 C93.355489,12.5135327 92.5286383,12.6802746 91.5929786,12.6073245 C91.0816317,12.5656371 90.6790854,12.4431859 90.3853333,12.239965 C90.0915791,12.0367441 89.743432,11.8152886 89.3408815,11.5755907 Z" transform="translate(-84 -1)"/>
</svg>
